<svg xmlns="http://www.w3.org/2000/svg" xmlns:xlink="http://www.w3.org/1999/xlink" viewBox="0 0 512 512"><defs><style>.cls-1{fill:url(#linear-gradient);}.cls-2{fill:url(#linear-gradient-2);}.cls-3{fill:url(#linear-gradient-3);}.cls-4{fill:url(#linear-gradient-4);}.cls-5{fill:url(#linear-gradient-5);}.cls-6{fill:url(#linear-gradient-6);}</style><linearGradient id="linear-gradient" x1="325.17" y1="180.92" x2="208.7" y2="295.47" gradientUnits="userSpaceOnUse"><stop offset="0" stop-color="#00c1f7"/><stop offset="1" stop-color="#009ff1"/></linearGradient><linearGradient id="linear-gradient-2" x1="467.83" y1="44.31" x2="354.19" y2="157.95" gradientUnits="userSpaceOnUse"><stop offset="0" stop-color="#00efff"/><stop offset="1" stop-color="#00cdf9"/></linearGradient><linearGradient id="linear-gradient-3" x1="239.16" y1="91.21" x2="14.6" y2="315.77" gradientUnits="userSpaceOnUse"><stop offset="0" stop-color="#00d4fa"/><stop offset="0.21" stop-color="#00d0f9"/><stop offset="0.43" stop-color="#00c2f6"/><stop offset="0.67" stop-color="#00adf0"/><stop offset="0.9" stop-color="#008ee9"/><stop offset="1" stop-color="#0080e5"/></linearGradient><linearGradient id="linear-gradient-4" x1="473.14" y1="285.66" x2="313.77" y2="445.04" gradientUnits="userSpaceOnUse"><stop offset="0" stop-color="#00e0fc"/><stop offset="1" stop-color="#00b9f5"/></linearGradient><linearGradient id="linear-gradient-5" x1="94.65" y1="276.19" x2="316.89" y2="498.43" gradientUnits="userSpaceOnUse"><stop offset="0.23" stop-color="#00a0f1"/><stop offset="0.24" stop-color="#00a1f1"/><stop offset="0.54" stop-color="#00aef3"/><stop offset="0.81" stop-color="#00b2f4"/><stop offset="0.87" stop-color="#00a8f0"/><stop offset="0.98" stop-color="#008de7"/><stop offset="1" stop-color="#0087e5"/></linearGradient><linearGradient id="linear-gradient-6" x1="211.04" y1="120.47" x2="142.79" y2="61.94" gradientUnits="userSpaceOnUse"><stop offset="0" stop-color="#00dcfc"/><stop offset="0.24" stop-color="#00d7fb"/><stop offset="0.53" stop-color="#00c8f7"/><stop offset="0.84" stop-color="#00b0f0"/><stop offset="1" stop-color="#00a1ec"/></linearGradient></defs><g id="nobg"><g id="Icon"><path class="cls-1" d="M209.78,298.49a3,3,0,0,1-3-3V182a12.51,12.51,0,0,1,.35-4,2,2,0,0,1,3.23-.84l31,31a3,3,0,0,0,4.23,0l52.51-52.51a3,3,0,0,1,4.24,0l50.72,50.72a3,3,0,0,1,0,4.23l-52.51,52.52a3,3,0,0,0,0,4.23L327,293.78a4.83,4.83,0,0,1,1.13,1.69c.48,1.24,0,3-2.79,3Z"/><path class="cls-2" d="M469,40a3,3,0,0,1,3,3V156.47a12.51,12.51,0,0,1-.35,4,2,2,0,0,1-3.23.84l-31-31a3,3,0,0,0-4.24,0L380.65,182.8a3,3,0,0,1-4.23,0L325.7,132.08a3,3,0,0,1,0-4.24l52.51-52.51a3,3,0,0,0,0-4.23L351.82,44.71A4.83,4.83,0,0,1,350.69,43c-.48-1.25,0-3,2.79-3Z"/><path class="cls-3" d="M134.59,399.45S92,402.32,72.23,388.53C45.74,370.08,40,345.5,40,330.82v-219c-.92-11.76,18.17-72.05,80-71.84,24.28.08,61.72,0,61.72,0-1.37,2-69.2-2.6-69.2,94.49V377.43C112.6,390.93,123.65,399.28,134.59,399.45Z"/><path class="cls-4" d="M327,472s72.51,0,72.51-94.57V222.72c.51-4.29,2.93-4.71,5.92-2.25L472,275.76V392c-.55,44.35-33.76,76.37-72.54,80Z"/><path class="cls-5" d="M399.46,377.43a22,22,0,0,1-22,22H134.59S92,402.32,72.23,388.53C45.74,370.08,40,345.5,40,330.82V392a80,80,0,0,0,80,80H327S399.46,472,399.46,377.43Z"/><path class="cls-6" d="M112.57,134.49a21.94,21.94,0,0,1,21.94-21.94H286.25c7.43,0,2.39-8.23,2.39-8.23L232,40H181.77C180.86,40.3,112.57,37.4,112.57,134.49Z"/></g></g></svg>