<?xml version="1.0" standalone="no"?>
<!DOCTYPE svg PUBLIC "-//W3C//DTD SVG 20010904//EN"
 "http://www.w3.org/TR/2001/REC-SVG-20010904/DTD/svg10.dtd">
<svg version="1.0" xmlns="http://www.w3.org/2000/svg"
 width="479.000000pt" height="73.000000pt" viewBox="0 0 479.000000 73.000000"
 preserveAspectRatio="xMidYMid meet">

<g transform="translate(0.000000,73.000000) scale(0.100000,-0.100000)"
fill="#000000" stroke="none">
<path d="M215 515 c-48 -17 -65 -38 -65 -80 0 -47 20 -65 96 -90 75 -24 91
-48 37 -53 -24 -2 -35 2 -45 17 -10 16 -23 21 -55 21 -24 0 -43 -2 -43 -4 0
-1 5 -17 11 -35 15 -42 55 -61 129 -61 76 0 115 19 129 63 22 64 -14 106 -104
122 -44 8 -68 23 -59 36 9 15 64 10 70 -6 8 -20 94 -21 94 -1 0 25 -41 65 -78
76 -48 13 -68 12 -117 -5z"/>
<path d="M825 518 c-68 -24 -102 -86 -91 -165 8 -57 20 -80 59 -103 45 -28
148 -27 193 0 69 43 83 172 25 231 -44 43 -122 59 -186 37z m105 -78 c13 -13
20 -33 20 -61 0 -61 -14 -79 -60 -79 -47 0 -60 18 -60 84 0 35 5 48 22 60 30
21 54 20 78 -4z"/>
<path d="M1773 511 c-51 -24 -73 -63 -73 -131 0 -102 46 -150 143 -150 73 0
103 12 127 52 32 53 27 68 -23 68 -34 0 -44 -4 -52 -22 -7 -17 -20 -24 -46
-26 -30 -3 -37 1 -47 23 -25 54 -8 121 33 131 28 7 65 -18 65 -43 0 -9 14 -13
45 -13 53 0 59 17 22 71 -38 57 -119 74 -194 40z"/>
<path d="M2433 519 c-38 -11 -73 -52 -73 -86 0 -36 50 -81 99 -89 48 -8 77
-26 67 -42 -11 -19 -55 -14 -73 8 -12 13 -30 20 -55 20 -34 0 -38 -3 -38 -25
0 -27 33 -63 68 -72 12 -3 51 -3 87 -1 74 5 101 23 111 74 11 60 -19 87 -123
114 -26 6 -43 17 -43 25 0 20 59 20 66 0 4 -10 20 -15 50 -15 37 0 44 3 44 20
0 28 -32 57 -77 69 -44 13 -66 13 -110 0z"/>
<path d="M450 375 l0 -145 130 0 130 0 0 35 0 35 -80 0 c-73 0 -80 2 -80 20 0
18 7 20 65 20 l65 0 0 35 0 35 -65 0 c-58 0 -65 2 -65 20 0 18 7 20 75 20 l75
0 0 35 0 35 -125 0 -125 0 0 -145z"/>
<path d="M1220 375 l0 -145 45 0 c45 0 45 0 45 34 0 25 7 39 22 50 12 9 25 16
29 16 3 0 18 -22 33 -50 l27 -50 55 0 c41 0 53 3 48 13 -4 6 -27 45 -51 84
l-45 72 20 28 c11 16 32 39 46 52 14 14 26 28 26 33 0 4 -24 8 -54 8 -54 0
-54 0 -103 -60 l-48 -60 -3 60 -3 60 -44 0 -45 0 0 -145z"/>
<path d="M1560 375 l0 -145 45 0 45 0 0 145 0 145 -45 0 -45 0 0 -145z"/>
<path d="M2030 375 l0 -145 45 0 c45 0 45 0 45 34 0 25 7 39 22 50 12 9 25 16
29 16 3 0 18 -22 33 -50 l27 -50 55 0 c41 0 53 3 48 13 -4 6 -27 45 -51 84
l-45 72 20 28 c11 16 32 39 46 52 14 14 26 28 26 33 0 4 -24 8 -54 8 -54 0
-54 0 -103 -60 l-48 -60 -3 60 -3 60 -44 0 -45 0 0 -145z"/>
<path d="M2640 485 l0 -35 50 0 50 0 0 -110 0 -110 45 0 45 0 0 110 0 110 50
0 50 0 0 35 0 35 -145 0 -145 0 0 -35z"/>
<path d="M3036 511 c-3 -5 -23 -58 -45 -117 -21 -60 -44 -121 -50 -136 l-11
-28 50 0 c40 0 50 4 55 20 5 17 15 20 57 20 41 0 51 -3 55 -20 4 -17 14 -20
54 -20 27 0 49 3 49 6 0 6 -75 215 -95 267 -6 13 -19 17 -60 17 -30 0 -56 -4
-59 -9z m78 -143 c6 -26 4 -28 -23 -28 -29 0 -29 0 -19 38 18 65 24 64 42 -10z"/>
<path d="M3280 375 l0 -145 45 0 45 0 0 56 c0 47 3 55 18 52 9 -2 28 -26 42
-55 l25 -52 53 -1 52 0 -30 61 -31 60 26 20 c35 28 35 90 0 124 -23 24 -31 25
-135 25 l-110 0 0 -145z m170 70 c19 -22 -5 -45 -46 -45 -31 0 -34 3 -34 30 0
27 3 30 34 30 18 0 39 -7 46 -15z"/>
<path d="M3570 485 l0 -35 50 0 50 0 0 -110 0 -110 45 0 45 0 0 110 0 110 50
0 50 0 0 35 0 35 -145 0 -145 0 0 -35z"/>
<path d="M3890 375 l0 -145 125 0 125 0 0 35 0 35 -80 0 c-73 0 -80 2 -80 20
0 17 8 19 68 22 l67 3 3 33 3 32 -70 0 c-64 0 -71 2 -71 20 0 18 7 20 80 20
l80 0 0 35 0 35 -125 0 -125 0 0 -145z"/>
<path d="M4180 375 l0 -145 50 0 50 0 0 55 c0 43 3 55 16 55 9 0 25 -23 40
-55 l25 -55 50 0 c27 0 49 2 49 5 0 2 -12 30 -27 61 -21 42 -25 58 -15 61 16
6 42 56 42 83 0 12 -13 35 -29 51 -29 29 -31 29 -140 29 l-111 0 0 -145z m168
76 c8 -5 12 -17 10 -27 -2 -14 -13 -20 -41 -22 -35 -3 -37 -2 -37 27 0 27 3
31 28 31 15 0 33 -4 40 -9z"/>
<path d="M4510 290 l0 -60 60 0 60 0 0 60 0 60 -60 0 -60 0 0 -60z"/>
</g>
</svg>
