
<svg xmlns="http://www.w3.org/2000/svg" version="1.1" xmlns:xlink="http://www.w3.org/1999/xlink" preserveAspectRatio="none" x="0px" y="0px" width="79px" height="66px" viewBox="0 0 79 66">
<defs>
<linearGradient id="Gradient_1" gradientUnits="userSpaceOnUse" x1="41.462500000000006" y1="40.65" x2="76.9375" y2="40.65" spreadMethod="pad">
<stop  offset="0%" stop-color="#FF0000"/>

<stop  offset="100%" stop-color="#FE8181"/>
</linearGradient>

<g id="Layer1_0_FILL">
<path fill="url(#Gradient_1)" stroke="none" d="
M 71.35 20.6
Q 71.35 19.25 70.5 18.35 69.75 17.35 68.55 17.35
L 49.95 17.35
Q 48.8 17.35 48 18.35 47.2 19.25 47.15 20.6
L 50 40.15 44.15 40.15
Q 43.05 40.15 42.25 41 41.5 41.9 41.5 43.1 41.5 44.2 42.05 44.95
L 56.9 63.15
Q 57.85 64.15 59.15 64.15
L 59.25 64.15
Q 59.3 64.15 59.4 64.15 59.95 64.15 60.4 64 61.1 63.75 61.6 63.15
L 76.5 44.95
Q 77 44.2 77 43.1 77 41.9 76.25 41 75.5 40.15 74.4 40.15
L 68.5 40.15 71.35 20.6 Z"/>

<path fill="#41FC66" stroke="none" d="
M 36.3 24.65
Q 37.05 23.8 37.05 22.55 37.05 21.5 36.5 20.7
L 21.65 2.5
Q 20.7 1.5 19.4 1.5 19.35 1.5 19.25 1.5 19.2 1.5 19.1 1.5 17.85 1.5 16.95 2.5
L 2.05 20.7
Q 1.5 21.5 1.5 22.55 1.5 23.8 2.3 24.65 3.05 25.6 4.15 25.6
L 10.05 25.6 7.2 45.1
Q 7.2 46.45 8.05 47.4 8.8 48.3 10 48.3
L 28.6 48.3
Q 29.75 48.3 30.55 47.4 31.35 46.45 31.4 45.1
L 28.55 25.6 34.4 25.6
Q 35.5 25.6 36.3 24.65 Z"/>
</g>

<path id="Layer0_0_1_STROKES" stroke="#000000" stroke-width="2.4" stroke-linejoin="round" stroke-linecap="round" fill="none" d="
M 77 43.1
Q 77 41.9 76.25 41 75.5 40.15 74.4 40.15
L 68.5 40.15 71.35 20.6
Q 71.35 19.25 70.5 18.35 69.75 17.35 68.55 17.35
L 49.95 17.35
Q 48.8 17.35 48 18.35 47.2 19.25 47.15 20.6
L 50 40.15 44.15 40.15
Q 43.05 40.15 42.25 41 41.5 41.9 41.5 43.1 41.5 44.2 42.05 44.95
L 56.9 63.15
Q 57.85 64.15 59.15 64.15
L 59.25 64.15
Q 59.3 64.15 59.4 64.15 59.95 64.15 60.4 64 61.1 63.75 61.6 63.15
L 76.5 44.95
Q 77 44.2 77 43.1 Z
M 1.5 22.55
Q 1.5 23.8 2.3 24.65 3.05 25.6 4.15 25.6
L 10.05 25.6 7.2 45.1
Q 7.2 46.45 8.05 47.4 8.8 48.3 10 48.3
L 28.6 48.3
Q 29.75 48.3 30.55 47.4 31.35 46.45 31.4 45.1
L 28.55 25.6 34.4 25.6
Q 35.5 25.6 36.3 24.65 37.05 23.8 37.05 22.55 37.05 21.5 36.5 20.7
L 21.65 2.5
Q 20.7 1.5 19.4 1.5 19.35 1.5 19.25 1.5 19.2 1.5 19.1 1.5 17.85 1.5 16.95 2.5
L 2.05 20.7
Q 1.5 21.5 1.5 22.55 Z"/>
</defs>

<g transform="matrix( 1, 0, 0, 1, 0,0) ">
<use xlink:href="#Layer1_0_FILL"/>
</g>

<g transform="matrix( 1, 0, 0, 1, 0,0) ">
<use xlink:href="#Layer0_0_1_STROKES"/>
</g>
</svg>
