<svg width="100" height="24" viewBox="0 0 100 24" fill="none" xmlns="http://www.w3.org/2000/svg">
<path fill-rule="evenodd" clip-rule="evenodd" d="M38.5501 12.8638C39.9547 12.7471 41.3653 12.721 42.7732 12.7855L42.7742 12.7845C42.7876 12.524 42.7948 12.2594 42.7948 11.9918C42.7948 10.2673 42.4952 8.67261 41.8971 7.20658C41.325 5.78018 40.4642 4.4875 39.3686 3.40974C38.2814 2.3442 36.9719 1.51029 35.44 0.905971C33.9081 0.301647 32.2083 0 30.3418 0H29.7262C31.1891 3.77316 33.5343 8.57378 37.012 11.5779C37.5381 12.0299 38.0488 12.4581 38.5501 12.8638ZM42.3717 15.3758C42.4232 15.1822 42.4705 14.9856 42.5117 14.7879C42.1843 14.7797 41.8477 14.7776 41.5028 14.7828C41.7993 14.9928 42.0886 15.1904 42.3717 15.3758ZM41.6355 17.3885L41.6352 17.3893C40.5018 16.6923 39.2809 15.8307 37.9736 14.8054C36.2955 14.9856 34.6832 15.3027 33.279 15.7268C32.7683 15.8802 31.9365 16.1098 31.4197 16.2364C30.043 16.5785 28.695 17.0274 27.3881 17.5789C26.3133 20.2917 25.2158 22.4351 24.1029 24H30.3418C32.2083 24 33.908 23.7004 35.4399 23.1023C36.9718 22.5031 38.2814 21.6692 39.3685 20.5985C40.3084 19.6716 41.0759 18.585 41.6352 17.3893L41.6355 17.3895V17.3885ZM21.0186 24H21.1853C22.1459 23.1949 23.2145 21.558 24.2378 19.2992C22.9571 19.987 21.8658 20.7282 21.0186 21.4303V24ZM21.0186 18.942V0H27.2245C27.8422 4.07687 28.1407 9.79272 26.5687 14.3668C26.3535 14.9918 26.1363 15.594 25.918 16.1695C24.0958 16.989 22.4269 17.9444 21.0186 18.942ZM30.9122 13.4907C31.3188 13.3898 31.9756 13.2097 32.3782 13.0882V13.0872C33.208 12.838 34.116 12.629 35.0858 12.4695C35.0536 12.4401 35.0207 12.4117 34.9879 12.3834C34.962 12.361 34.9362 12.3388 34.9108 12.3161C32.9537 10.6246 31.2159 7.55869 29.7313 4.72753C29.9063 7.89946 29.5707 11.5172 28.7306 13.9602C28.7071 14.0289 28.6834 14.0975 28.6596 14.1661C29.3984 13.9025 30.1502 13.6771 30.9122 13.4907Z" fill="#FAFAFA"/>
<path fill-rule="evenodd" clip-rule="evenodd" d="M38.5501 12.8638C39.9547 12.7471 41.3653 12.721 42.7732 12.7855L42.7742 12.7845C42.7876 12.524 42.7948 12.2594 42.7948 11.9918C42.7948 10.2673 42.4952 8.67261 41.8971 7.20658C41.325 5.78018 40.4642 4.4875 39.3686 3.40974C38.2814 2.3442 36.9719 1.51029 35.44 0.905971C33.9081 0.301647 32.2083 0 30.3418 0H29.7262C31.1891 3.77316 33.5343 8.57378 37.012 11.5779C37.5381 12.0299 38.0488 12.4581 38.5501 12.8638ZM42.3717 15.3758C42.4232 15.1822 42.4705 14.9856 42.5117 14.7879C42.1843 14.7797 41.8477 14.7776 41.5028 14.7828C41.7993 14.9928 42.0886 15.1904 42.3717 15.3758ZM41.6355 17.3885L41.6352 17.3893C40.5018 16.6923 39.2809 15.8307 37.9736 14.8054C36.2955 14.9856 34.6832 15.3027 33.279 15.7268C32.7683 15.8802 31.9365 16.1098 31.4197 16.2364C30.043 16.5785 28.695 17.0274 27.3881 17.5789C26.3133 20.2917 25.2158 22.4351 24.1029 24H30.3418C32.2083 24 33.908 23.7004 35.4399 23.1023C36.9718 22.5031 38.2814 21.6692 39.3685 20.5985C40.3084 19.6716 41.0759 18.585 41.6352 17.3893L41.6355 17.3895V17.3885ZM21.0186 24H21.1853C22.1459 23.1949 23.2145 21.558 24.2378 19.2992C22.9571 19.987 21.8658 20.7282 21.0186 21.4303V24ZM21.0186 18.942V0H27.2245C27.8422 4.07687 28.1407 9.79272 26.5687 14.3668C26.3535 14.9918 26.1363 15.594 25.918 16.1695C24.0958 16.989 22.4269 17.9444 21.0186 18.942ZM30.9122 13.4907C31.3188 13.3898 31.9756 13.2097 32.3782 13.0882V13.0872C33.208 12.838 34.116 12.629 35.0858 12.4695C35.0536 12.4401 35.0207 12.4117 34.9879 12.3834C34.962 12.361 34.9362 12.3388 34.9108 12.3161C32.9537 10.6246 31.2159 7.55869 29.7313 4.72753C29.9063 7.89946 29.5707 11.5172 28.7306 13.9602C28.7071 14.0289 28.6834 14.0975 28.6596 14.1661C29.3984 13.9025 30.1502 13.6771 30.9122 13.4907Z" fill="url(#paint0_radial_1933_4056)"/>
<path fill-rule="evenodd" clip-rule="evenodd" d="M38.5501 12.8638C39.9547 12.7471 41.3653 12.721 42.7732 12.7855L42.7742 12.7845C42.7876 12.524 42.7948 12.2594 42.7948 11.9918C42.7948 10.2673 42.4952 8.67261 41.8971 7.20658C41.325 5.78018 40.4642 4.4875 39.3686 3.40974C38.2814 2.3442 36.9719 1.51029 35.44 0.905971C33.9081 0.301647 32.2083 0 30.3418 0H29.7262C31.1891 3.77316 33.5343 8.57378 37.012 11.5779C37.5381 12.0299 38.0488 12.4581 38.5501 12.8638ZM42.3717 15.3758C42.4232 15.1822 42.4705 14.9856 42.5117 14.7879C42.1843 14.7797 41.8477 14.7776 41.5028 14.7828C41.7993 14.9928 42.0886 15.1904 42.3717 15.3758ZM41.6355 17.3885L41.6352 17.3893C40.5018 16.6923 39.2809 15.8307 37.9736 14.8054C36.2955 14.9856 34.6832 15.3027 33.279 15.7268C32.7683 15.8802 31.9365 16.1098 31.4197 16.2364C30.043 16.5785 28.695 17.0274 27.3881 17.5789C26.3133 20.2917 25.2158 22.4351 24.1029 24H30.3418C32.2083 24 33.908 23.7004 35.4399 23.1023C36.9718 22.5031 38.2814 21.6692 39.3685 20.5985C40.3084 19.6716 41.0759 18.585 41.6352 17.3893L41.6355 17.3895V17.3885ZM21.0186 24H21.1853C22.1459 23.1949 23.2145 21.558 24.2378 19.2992C22.9571 19.987 21.8658 20.7282 21.0186 21.4303V24ZM21.0186 18.942V0H27.2245C27.8422 4.07687 28.1407 9.79272 26.5687 14.3668C26.3535 14.9918 26.1363 15.594 25.918 16.1695C24.0958 16.989 22.4269 17.9444 21.0186 18.942ZM30.9122 13.4907C31.3188 13.3898 31.9756 13.2097 32.3782 13.0882V13.0872C33.208 12.838 34.116 12.629 35.0858 12.4695C35.0536 12.4401 35.0207 12.4117 34.9879 12.3834C34.962 12.361 34.9362 12.3388 34.9108 12.3161C32.9537 10.6246 31.2159 7.55869 29.7313 4.72753C29.9063 7.89946 29.5707 11.5172 28.7306 13.9602C28.7071 14.0289 28.6834 14.0975 28.6596 14.1661C29.3984 13.9025 30.1502 13.6771 30.9122 13.4907Z" fill="url(#paint1_radial_1933_4056)"/>
<mask id="mask0_1933_4056" style="mask-type:alpha" maskUnits="userSpaceOnUse" x="21" y="0" width="22" height="24">
<path fill-rule="evenodd" clip-rule="evenodd" d="M38.5501 12.8638C39.9547 12.7471 41.3653 12.721 42.7732 12.7855L42.7742 12.7845C42.7876 12.524 42.7948 12.2594 42.7948 11.9918C42.7948 10.2673 42.4952 8.67261 41.8971 7.20658C41.325 5.78018 40.4642 4.4875 39.3686 3.40974C38.2814 2.3442 36.9719 1.51029 35.44 0.905971C33.9081 0.301647 32.2083 0 30.3418 0H29.7262C31.1891 3.77316 33.5343 8.57378 37.012 11.5779C37.5381 12.0299 38.0488 12.4581 38.5501 12.8638ZM42.3717 15.3758C42.4232 15.1822 42.4705 14.9856 42.5117 14.7879C42.1843 14.7797 41.8477 14.7776 41.5028 14.7828C41.7993 14.9928 42.0886 15.1904 42.3717 15.3758ZM41.6355 17.3885L41.6352 17.3893C40.5018 16.6923 39.2809 15.8307 37.9736 14.8054C36.2955 14.9856 34.6832 15.3027 33.279 15.7268C32.7683 15.8802 31.9365 16.1098 31.4197 16.2364C30.043 16.5785 28.695 17.0274 27.3881 17.5789C26.3133 20.2917 25.2158 22.4351 24.1029 24H30.3418C32.2083 24 33.908 23.7004 35.4399 23.1023C36.9718 22.5031 38.2814 21.6692 39.3685 20.5985C40.3084 19.6716 41.0759 18.585 41.6352 17.3893L41.6355 17.3895V17.3885ZM21.0186 24H21.1853C22.1459 23.1949 23.2145 21.558 24.2378 19.2992C22.9571 19.987 21.8658 20.7282 21.0186 21.4303V24ZM21.0186 18.942V0H27.2245C27.8422 4.07687 28.1407 9.79272 26.5687 14.3668C26.3535 14.9918 26.1363 15.594 25.918 16.1695C24.0958 16.989 22.4269 17.9444 21.0186 18.942ZM30.9122 13.4907C31.3188 13.3898 31.9756 13.2097 32.3782 13.0882V13.0872C33.208 12.838 34.116 12.629 35.0858 12.4695C35.0536 12.4401 35.0207 12.4117 34.9879 12.3834C34.962 12.361 34.9362 12.3388 34.9108 12.3161C32.9537 10.6246 31.2159 7.55869 29.7313 4.72753C29.9063 7.89946 29.5707 11.5172 28.7306 13.9602C28.7071 14.0289 28.6834 14.0975 28.6596 14.1661C29.3984 13.9025 30.1502 13.6771 30.9122 13.4907Z" fill="white"/>
</mask>
<g mask="url(#mask0_1933_4056)">
</g>
<path d="M61 0V4.28277H50.7996V10.361H59.2942V14.6603H50.7996V24H45V0H61Z" fill="#FFBF00"/>
<path fill-rule="evenodd" clip-rule="evenodd" d="M5.5676 24V15.978H8.46671C10.1253 15.978 11.5604 15.7783 12.7742 15.3768C13.988 14.9763 14.9897 14.4183 15.7804 13.7049C16.5642 13.001 17.1685 12.12 17.5429 11.1352C17.9269 10.1366 18.1194 9.03809 18.1194 7.84076C18.1194 6.73095 17.9331 5.69938 17.5594 4.74399C17.186 3.78857 16.5902 2.93591 15.8215 2.25669C15.0371 1.55353 14.0374 1.00274 12.8236 0.601235C11.6098 0.200755 10.1582 0 8.46671 0H0V24H5.5676ZM8.4667 11.7776H5.56759V4.16747H8.4667C9.16985 4.16747 9.77624 4.25601 10.2869 4.43102C10.7598 4.58424 11.1929 4.84018 11.5552 5.18051C11.8906 5.50516 12.147 5.90246 12.3047 6.3418C12.4694 6.7917 12.5518 7.29204 12.5518 7.84077C12.5518 9.08236 12.2337 10.048 11.5964 10.7399C10.9591 11.4317 9.91625 11.7776 8.4667 11.7776Z" fill="#1E6DF7"/>
<path d="M64 23.8523V12H66.2138V21.9622H70.4487V23.8523H64ZM71.9984 13.4639C71.9984 12.7305 72.3936 12.3638 73.1839 12.3638C73.9742 12.3638 74.3694 12.7305 74.3694 13.4639C74.3694 13.8134 74.2706 14.0854 74.073 14.2798C73.8754 14.4742 73.5791 14.5714 73.1839 14.5714C72.3936 14.5714 71.9984 14.2023 71.9984 13.4639ZM74.2694 23.8523H72.0913V15.5977H74.2694V23.8523ZM83.9246 23.8523H81.7465V19.031C81.7465 18.4354 81.6441 17.9887 81.4394 17.6909C81.2347 17.3931 80.9085 17.2442 80.461 17.2442C79.8516 17.2442 79.4112 17.4546 79.1398 17.8755C78.8685 18.2963 78.7328 18.9941 78.7328 19.9687V23.8523H76.5546V15.5977H78.2186L78.5114 16.6535H78.6328C78.8756 16.2548 79.2101 15.9534 79.6362 15.7491C80.0623 15.5448 80.5467 15.4427 81.0895 15.4427C82.0179 15.4427 82.7225 15.7023 83.2033 16.2216C83.6842 16.7409 83.9246 17.4903 83.9246 18.4699V23.8523ZM89.4735 17.0449C89.0117 17.0449 88.6499 17.1962 88.388 17.4989C88.1262 17.8017 87.9762 18.2311 87.9381 18.7873H90.9946C90.9851 18.2311 90.8447 17.8017 90.5733 17.4989C90.3019 17.1962 89.9353 17.0449 89.4735 17.0449ZM89.7806 24C88.4951 24 87.4906 23.6333 86.7669 22.8999C86.0432 22.1665 85.6814 21.1279 85.6814 19.7841C85.6814 18.4009 86.0159 17.3316 86.6848 16.576C87.3537 15.8204 88.2785 15.4427 89.4592 15.4427C90.5876 15.4427 91.466 15.7749 92.0944 16.4394C92.7229 17.1039 93.0371 18.0219 93.0371 19.1934V20.2862H87.8881C87.9119 20.9261 88.0952 21.4257 88.438 21.785C88.7808 22.1443 89.2617 22.324 89.8806 22.324C90.3614 22.324 90.8161 22.2723 91.2446 22.1689C91.6731 22.0656 92.1206 21.9007 92.5872 21.6742V23.4167C92.2063 23.6136 91.7992 23.76 91.366 23.856C90.9327 23.952 90.4043 24 89.7806 24ZM99.2644 15.4427C99.5596 15.4427 99.8048 15.4648 100 15.5091L99.8357 17.6208C99.6596 17.5715 99.4454 17.5469 99.193 17.5469C98.4979 17.5469 97.9564 17.7315 97.5683 18.1007C97.1803 18.4699 96.9863 18.9867 96.9863 19.6512V23.8523H94.8082V15.5977H96.4578L96.7792 16.9858H96.8863C97.1339 16.5231 97.4684 16.1502 97.8897 15.8672C98.3111 15.5842 98.7693 15.4427 99.2644 15.4427Z" fill="#162038"/>
<defs>
<radialGradient id="paint0_radial_1933_4056" cx="0" cy="0" r="1" gradientUnits="userSpaceOnUse" gradientTransform="translate(21.0186) rotate(50.3785) scale(23.2834 39.4038)">
<stop stop-color="#1E6DF7"/>
<stop offset="1" stop-color="#0262FE" stop-opacity="0.01"/>
</radialGradient>
<radialGradient id="paint1_radial_1933_4056" cx="0" cy="0" r="1" gradientUnits="userSpaceOnUse" gradientTransform="translate(39.6199 22.3432) rotate(-129.168) scale(17.5664 31.0869)">
<stop stop-color="#FFB504"/>
<stop offset="1" stop-color="#FFB502" stop-opacity="0.01"/>
</radialGradient>
</defs>
</svg>
